# xmcd
#
# Track frame offsets:
#	150
#	17787
#	36532
#	54350
#	73129
#	95935
#	123965
#	143346
#	160593
#	186088
#
# Disc length: 2671 seconds
#
# Revision: 1
# Processed by: cddbd v1.5.1PL0 Copyright (c) Steve Scherf et al.
# Submitted via: audiograbber 1.83.01
#
DISCID=870a6d0a
DTITLE=Terje Vevatne - Thrillwalk
DYEAR=2002
DGENRE=Blues
TTITLE0=Ready
TTITLE1=Shuffle leg
TTITLE2=Sensual girl
TTITLE3=Automobil trouble
TTITLE4=Hard lovin' woman
TTITLE5=Strip
TTITLE6=Let's get the blues going
TTITLE7=The blues for you
TTITLE8=Gangster
TTITLE9=Thrillwalk
EXTD=
EXTT0=
EXTT1=
EXTT2=
EXTT3=
EXTT4=
EXTT5=
EXTT6=
EXTT7=
EXTT8=
EXTT9=
PLAYORDER=
